<svg width="206" height="64" fill="none" xmlns="http://www.w3.org/2000/svg"><g clip-path="url(#clip0)"><path d="M157.841 24.701v-13.21h6.78l1-4.95h-7.8V.151h-6v6.39h-5.11l-1 5h6.08v13.26c.01 9.15 3.92 12.35 7.77 12.35a9.91 9.91 0 007.26-3.22l-2.69-4c-4.51 3.37-6.29-.2-6.29-5.23zm42.23-18.51l-5.11 20.5-5.21-20.37h-5.36l-5.21 20.37-5.11-20.5h-5.86l8.08 30.55h5.62l5.16-20.13 5.17 20.13h5.62l8.07-30.55h-5.86zm-60.086 7.381l-4.921 4.922 4.921 4.921 4.922-4.921-4.922-4.922zm-13.134-1.921v-4.84a6.487 6.487 0 00-1.85-4.79 6.796 6.796 0 00-4.9-1.82h-4.39v5.15h3.82a1.997 1.997 0 012.057 1.287c.103.272.145.563.123.853v5.31a5.19 5.19 0 001.46 3.89 7.628 7.628 0 003.9 1.79 7.629 7.629 0 00-3.9 1.79 5.185 5.185 0 00-1.46 3.88v5.31a1.993 1.993 0 01-.587 1.568 1.996 1.996 0 01-1.573.572h-3.84v5.15h4.38a6.802 6.802 0 004.9-1.82 6.461 6.461 0 001.86-4.78v-4.84c0-2.66 1.43-4.2 4.43-4.2v-5.26c-3 0-4.43-1.54-4.43-4.2zm-116.961.6l1.32-6.8h12l.89-5.3H6.52l-3.26 18.33a18.33 18.33 0 0111.45-.51 6.15 6.15 0 014.17 7.18 6.32 6.32 0 01-5.08 5.45c-4.25 1.13-9.9-1.23-11.93-4.51l-1.16 6.38a17.16 17.16 0 0011.57 4.26 12.7 12.7 0 0012.22-8.58c1.24-3.71.9-8.94-2.27-12.42-3.75-4.13-10.28-3.81-12.34-3.48zm38.08-3.48h-5.93l-3.5 6.2-3.41-6.2h-5.95l5.89 10.17-6.16 10.59h5.97l3.68-6.52 3.7 6.52h5.96l-6.17-10.59 5.92-10.17zm12.52 4.03v-5.31a2 2 0 012.16-2.14h3.81V.201h-4.38a6.81 6.81 0 00-4.9 1.82 6.479 6.479 0 00-1.85 4.79v4.84c0 2.66-1.43 4.2-4.43 4.2v5.3c3 0 4.43 1.54 4.43 4.2v4.8a6.459 6.459 0 001.85 4.79 6.81 6.81 0 004.9 1.82h4.38v-5.15h-3.81a2 2 0 01-2.16-2.14v-5.32a5.2 5.2 0 00-1.47-3.89 7.63 7.63 0 00-3.9-1.79 7.63 7.63 0 003.9-1.79 5.19 5.19 0 001.47-3.88zm40.771 47.41h-3.24v1.43c0 .79-.16 1.2-.75 1.43a7.347 7.347 0 01-2.47.23 6.006 6.006 0 00-.51-1.5h1.77c.22 0 .3-.06.3-.23v-1.36h-4.05c.564.393 1.087.842 1.56 1.34l-1.27 1.11a11.006 11.006 0 00-2.19-2l.57-.49h-2.86v-1.32h8.24v-.58c-2.82.07-5.55.13-7.56.16l-.09-1.28h5.08v-.47h-4.08v-4.16h4.15v-.52h-5.36v-1.3h5.32v-.92h1.67v.92h5.22v1.3h-5.22v.52h4.37v4.18h-.87c.618.333 1.212.707 1.78 1.12l-1 .91-.69-.53h-1v.62h3.24l-.06 1.39zm-10-6.1h2.56v-.56h-2.56v.56zm2.56 1.55v-.57h-2.56v.57h2.56zm1.67-2.11v.6h2.69v-.6h-2.69zm2.69 2.11v-.57h-2.69v.57h2.69zm-2.69 1.49h1.78c-.19-.08-.36-.17-.54-.24l.25-.2h-1.49v.44zm12.79 3.85a10.993 10.993 0 01-4.21 1.92 6.37 6.37 0 00-1-1.24 11.998 11.998 0 004-1.23l1.21.55zm7.66-2.44v1.42h-5.61v3.29h-1.7v-3.29h-5.51v-1.42h5.51v-.63h-4.17v-1.25h4.17v-.65h-4.92v-1.3h2.66a9.26 9.26 0 00-.53-1l1-.22h-3.68v-1.36h2a13.262 13.262 0 00-.93-1.79l1.47-.5c.447.619.817 1.29 1.1 2l-.69.26h1.33v-2.36h1.59v2.39h1.08v-2.39h1.6v2.39h1.28l-.52-.16c.375-.662.687-1.359.93-2.08l1.81.42c-.41.66-.8 1.31-1.16 1.82h1.86v1.34h-3.81l1.36.35c-.32.34-.62.66-.88.92h2.79v1.3h-5v.65h4.34v1.25h-4.34v.63l5.57-.03zm-8.34-5.1c.223.343.417.704.58 1.08l-.78.19h3.94l-.52-.16c.23-.33.54-.76.74-1.11h-3.96zm4.51 6.91c1.17.43 2.87 1.15 3.8 1.62l-1.22.93a41.232 41.232 0 00-3.74-1.77l1.16-.78zm9.98-1.01c-.19-.48-.55-1.19-.89-1.84v5.75h-1.64v-5.37a14.216 14.216 0 01-1.43 3.12 10.116 10.116 0 00-.73-1.71 14.753 14.753 0 001.77-3.87h-1.59v-1.6h2v-1.69c-.46.09-.92.18-1.36.23a5.543 5.543 0 00-.46-1.33c1.435-.23 2.839-.63 4.18-1.19l.91 1.41c-.531.209-1.076.383-1.63.52v2.1h1.61v1.6h-1.61v.23c.37.42 1.54 1.92 1.8 2.28l-.93 1.36zm8.84 2.09v1.53h-8.35v-1.53h3.48v-1.3h-2.74v-1.49h2.74v-1.17c-.76.06-1.54.1-2.26.13a5.656 5.656 0 00-.42-1.3 35.597 35.597 0 005.89-.78l1.06 1.3c-.77.19-1.65.33-2.56.46v1.36h2.59v1.49h-2.59v1.3h3.16zm-.69-6.1h-6.85v-5h6.85v5zm-1.66-3.52h-3.6v2.08h3.6v-2.08zm13.13 2.06c.3 4.22 1.18 7.56 2.24 7.56.3 0 .47-.76.55-2.6.429.43.938.77 1.5 1-.26 2.73-.84 3.4-2.21 3.4-2.47 0-3.56-4.28-3.9-9.37h-7.18v-1.66h7.09v-2.39h1.85v2.39h2.28a10.054 10.054 0 00-1.69-1.52l1.14-.94c.695.46 1.333 1 1.9 1.61l-1 .85h1.35v1.67h-3.92zm-4.57 6.49l2.69-.5.13 1.53c-2.37.52-4.91 1.05-6.78 1.44l-.47-1.7 2.73-.43v-3.52h-2.18v-1.66h6.19v1.66h-2.31v3.18zm22.67-6.4a16.507 16.507 0 01-1.56 5.38 6.668 6.668 0 002.56 2.39 6.738 6.738 0 00-1.18 1.51 7.89 7.89 0 01-2.43-2.31 9.62 9.62 0 01-3.06 2.36 7.558 7.558 0 00-1-1.56 7.182 7.182 0 003.11-2.47 17.812 17.812 0 01-1-2.92c-.22.35-.44.7-.67 1a8.655 8.655 0 00-1-.89 14.716 14.716 0 01-2 1.86v.36l2.52-.22v1.46c-.83.09-1.69.18-2.52.25v1.43c0 .75-.13 1.14-.64 1.37a5.34 5.34 0 01-2.09.25 5.004 5.004 0 00-.5-1.46h1.38c.18 0 .24-.05.24-.2v-1.23l-2.74.27-.18-1.53 2.92-.24v-.8c.426-.3.827-.635 1.2-1h-1.5c-.517.369-1.059.703-1.62 1a10.546 10.546 0 00-1.14-1.3 12.014 12.014 0 002.8-1.78h-2.57v-1.47h2.2v-1h-1.63v-1.41h1.65v-1.32h1.59v1.32h1.28v.92c.365-.6.679-1.228.94-1.88l1.58.47a15.802 15.802 0 01-1.59 2.9h1v1.14a17.636 17.636 0 001.41-4.87l1.74.28c-.14.79-.31 1.6-.52 2.35h3.92v1.59h-.9zm-8.85-.49h.23c.261-.318.501-.652.72-1h-.95v1zm2.37 2.53c.255-.336.486-.69.69-1.06h-2a9.762 9.762 0 01-.68.74h1.2l.3-.09.49.41zm3.06-2c.183 1.15.477 2.278.88 3.37.376-1.093.634-2.222.77-3.37h-1.65zm18.73-1.53h-3a17.941 17.941 0 012.54 2.24l-1.31.83h.61v5.86c0 .93-.25 1.3-.94 1.52-1.035.188-2.09.252-3.14.19a5.483 5.483 0 00-.4-1.46c.79.06 2 .06 2.22 0 .22-.06.38-.09.38-.32v-1c-2.13.46-4.27.9-5.94 1.25l-.51-1.52c1.2-.16 3-.42 4.87-.71a22.996 22.996 0 00-4.53-1.17l.5-1c1.684.2 3.339.6 4.93 1.19l-.45.94 1.13-.18v-2.18h-6.47v.9c0 1.69-.26 4-1.58 5.55a6.205 6.205 0 00-1.41-1 6.732 6.732 0 001.3-4.56v-2.3h9.11a7.82 7.82 0 00-.7-.77c-7.05.27-7.91.29-8.53.51a15.13 15.13 0 00-.52-1.58 3.39 3.39 0 001.3-.71c.227-.16.444-.334.65-.52h-2.92v-1.5h4.54c.439-.44.85-.908 1.23-1.4l1.75.66c-.22.25-.45.49-.7.74h6l-.01 1.5zm-4.21 1c-.3-.23-.59-.46-.87-.66l.58-.35h-3.08c-.49.42-1 .8-1.44 1.14l4.81-.13zm9.39 4.45a14.442 14.442 0 00-.59-1.4v6.72h-1.47v-5.58a13.72 13.72 0 01-1 2.59 11.02 11.02 0 00-.66-1.71 14.654 14.654 0 001.56-4.52h-1.19v-1.59h1.28v-2.69h1.48v2.69h1v1.59h-1v.63c.32.45 1.14 1.78 1.33 2.13l-.74 1.14zm9.15 1a8.718 8.718 0 01-1.59 2.12c.222.278.539.463.89.52.28 0 .45-.49.55-1.5a4.51 4.51 0 001.09.91c-.38 1.79-1 2.3-1.58 2.25a2.932 2.932 0 01-2.1-1.23c-.709.496-1.479.9-2.29 1.2a6.296 6.296 0 00-.88-1.09 9.07 9.07 0 002.49-1.31 12.01 12.01 0 01-.74-2.31h-2v.32c.59.48 1.41 1.14 1.83 1.56l-1 1a12.61 12.61 0 00-1.08-1 5.9 5.9 0 01-2 2.89 5.136 5.136 0 00-1.14-1 4.727 4.727 0 002-3.76h-.85v-1.36h4a45.642 45.642 0 01-.49-5.06 20.061 20.061 0 01-2 3l.81-.09c-.07-.22-.13-.45-.19-.65l1-.26c.23.683.423 1.377.58 2.08l-1.07.32c0-.13-.05-.31-.09-.49-.769.072-1.53.219-2.27.44-.07-.23-.26-.85-.4-1.17.306-.119.561-.342.72-.63.251-.339.482-.693.69-1.06-.393.03-.78.114-1.15.25-.08-.26-.28-.84-.41-1.16a1 1 0 00.52-.52 10.57 10.57 0 001-2.31l1.23.32c-.338.84-.754 1.646-1.24 2.41h.65c.14-.29.29-.6.4-.9l1.2.4c0-.69-.06-1.44-.09-2.19h1.42c.012 2.449.216 4.893.61 7.31h1.33c-.25-.22-.52-.44-.76-.62l.65-.54c-.344.04-.68.127-1 .26-.11-.4-.24-.793-.39-1.18.298-.147.546-.38.71-.67.251-.312.471-.647.66-1a4.004 4.004 0 00-1.13.24c-.12-.39-.26-.774-.42-1.15.224-.096.405-.27.51-.49.372-.695.664-1.43.87-2.19l1.2.3a11.907 11.907 0 01-1.13 2.22h.65c.13-.29.26-.61.37-.9l1.25.41a19.64 19.64 0 01-1.92 3.06l.79-.09c-.07-.2-.13-.42-.2-.6l1-.28c.259.688.483 1.389.67 2.1l-1 .36a5.407 5.407 0 00-.13-.59l-.91.14c.382.274.749.568 1.1.88l-.38.35h1.16v1.31h-1.68l1.1.42zm-2.74-.44c.107.427.237.848.39 1.26a6.61 6.61 0 00.85-1.26h-1.24zm9.19.39c-.17-.44-.49-1.12-.8-1.77v6.12h-1.56v-5.29c-.314.98-.747 1.916-1.29 2.79a8.064 8.064 0 00-.8-1.51 14.992 14.992 0 002-4.89h-1.61v-1.59h1.74v-3h1.56v3h1.47v1.59h-1.47v.7c.41.57 1.46 2.22 1.7 2.64l-.94 1.21zm9.28 2.08h-.79v.7c0 .71-.15 1.08-.64 1.31a5.209 5.209 0 01-2 .23 5.378 5.378 0 00-.45-1.37h1.3c.17 0 .25-.06.25-.22v-.67h-4.14v2.23h-1.56v-2.21h-.84v-1.25h.84v-3.57h2.79v-.54h-3.38v-1.25h1.79v-.6h-1.19v-1.15h1.19v-.61h-1.49v-1.18h1.49v-1h1.59v1h1.56v-1h1.62v1h1.62v1.18h-1.62v.61h1.4v1.15h-1.4v.6h1.88v1.22h-3.51v.57h2.86v3.6h.79l.04 1.22zm-6.47-3.67v.63h1.23v-.63h-1.23zm0 2.42h1.23v-.67h-1.23v.67zm1.23-7.11h1.56v-.61h-1.56v.61zm0 1.75h1.56v-.6h-1.56v.6zm1.55 2.94v.63h1.27v-.63h-1.27zm1.27 2.42v-.67h-1.27v.67h1.27zM14.42 60.871v1.71H1.53v-1.71h3.34c.25-1.17.51-2.52.75-3.94H3.17v-1.69h2.71c.13-.82.25-1.66.35-2.46H2.36v-1.7h11.12v1.7H8.14c-.12.8-.25 1.64-.38 2.46h2.67l.28-.09 1.37.1c-.09 1.69-.27 3.73-.48 5.59l2.82.03zm-6.92-3.94c-.24 1.43-.49 2.79-.72 3.94h3c.14-1.31.27-2.76.36-3.94H7.5zm13.12-6.6a28.493 28.493 0 01-1.39 3v9.88h-1.64v-7.26c-.29.36-.58.7-.86 1a12.332 12.332 0 00-.92-1.75 15.308 15.308 0 003.22-5.4l1.59.53zm8.81 5v1.53h-9.4v-1.55h2.12a9.719 9.719 0 00-.63-2.06l1.33-.4h-2.24v-1.51h3.33c-.1-.48-.23-1-.37-1.45l1.59-.29c.227.566.411 1.147.55 1.74h3.26v1.51h-2.32l1.34.32c-.3.74-.61 1.52-.91 2.14l2.35.02zm-8.26 2.46h7.09v5.43h-1.7v-.47h-3.77v.51h-1.62v-5.47zm1.79-4.92a9 9 0 01.75 2.11l-1.06.33h2.82c.36-.794.65-1.617.87-2.46l-3.38.02zm-.17 6.42v2h3.77v-2h-3.77zm12.921-.7c0-.19-.07-.4-.12-.65-3.26.54-3.83.69-4.19.87a12.53 12.53 0 00-.56-1.61c.5-.18.937-.499 1.26-.92.355-.36.69-.74 1-1.14a6.763 6.763 0 00-1.8.33 10.242 10.242 0 00-.54-1.58 2 2 0 00.95-.74 16.248 16.248 0 002-3.46l1.64.7a20.765 20.765 0 01-2.24 3.37l1.12-.09c.423-.593.81-1.211 1.16-1.85l1.47 1a26.916 26.916 0 01-3.19 4l1.56-.22c-.11-.37-.23-.74-.36-1.08l1.38-.37c.394.972.705 1.976.93 3l-1.47.44zm-2.47 1c-.2 1.191-.514 2.36-.94 3.49a8.739 8.739 0 00-1.49-.52c.45-1.064.753-2.184.9-3.33l1.53.36zm1.67-.44c.226.989.39 1.99.49 3l-1.46.42a23.782 23.782 0 00-.4-3l1.37-.42zm1.62-.53c.276.628.514 1.273.71 1.93l-1.35.54a16.365 16.365 0 00-.66-2l1.3-.47zm7.77 2.35v1.68h-7.77v-1.72h3.09v-8.44h-2.59v-1.69h7v1.69h-2.62v8.44l2.89.04zm11.299.38c1.17.32 2.32.66 3.09.93l-1.47 1a37.772 37.772 0 00-4.24-1.39l.62-.53h-2.61l.74.52a18.359 18.359 0 01-4.82 1.37 10.61 10.61 0 00-1-1.14 20.052 20.052 0 003.47-.75h-1.61v-4.79h9.48v4.78H55.6zm-8.6-8.54h-.85v-2.22h5.26a4.854 4.854 0 00-.25-.61l1.74-.38a7.8 7.8 0 01.44 1h5.22v2.22h-1.14v.55h-1.59v.41h2.47v.85h-2.47v.72h.79v-.6h1.26v1.4h-5.42v-1.4h1.19v.59h.76v-.72h-2.35v-.85h.48a3.554 3.554 0 00-.64-.39 4.23 4.23 0 001.18-1.46h-5.37v.49h4.1v1h-1.6v.43h1.5v.85h-1.5v.41l1.73-.09v1.04c-1.94.13-3.93.24-5.39.32l-.12-1.13 2.37-.1v-.48h-1.6v-.85h1.59v-.43H47v-.57zm2.41 5.09h6.09v-.44h-6.09v.44zm0 1.27h6.09v-.45h-6.09v.45zm0 1.28h6.09v-.44h-6.09v.44zm5-7.09h-.91a2.51 2.51 0 01-.34.41h1.25v-.41zm2.55-1.44h-3.59l.91.15-.21.42h2.89v-.57zm9.651.52c-.42 1.09-.919 2.15-1.49 3.17h7.59v7.59h-1.84v-.81h-5.78v.87h-1.75v-5.11a10.744 10.744 0 01-2 1.81 9.5 9.5 0 00-1.21-1.33 12.78 12.78 0 004.43-6.15h-3.72v-1.73h12.69v1.69h-6.92zm4.26 4.82h-5.78v3.47h5.78v-3.47zm9.643-2.782l-2.524 2.524 2.524 2.524 2.525-2.524-2.525-2.524z" fill="#fff"/><path d="M68.441 13.849l22.925 24.279v-24.28H68.44z" fill="url(#paint0_linear)"/><path d="M91.366.711H74.939L68.44 13.849h22.925V.71z" fill="url(#paint1_linear)"/><path d="M114.321 13.849L107.793.71H91.366v13.138h22.955z" fill="url(#paint2_linear)"/><path d="M91.366 13.849v24.279l22.955-24.28H91.366z" fill="url(#paint3_linear)"/></g><defs><linearGradient id="paint0_linear" x1="74.43" y1="9.052" x2="96.621" y2="31.243" gradientUnits="userSpaceOnUse"><stop stop-color="#E7332E"/><stop offset="1" stop-color="#ED7C6F"/></linearGradient><linearGradient id="paint1_linear" x1="79.898" y1="14.836" x2="79.898" y2="-.643" gradientUnits="userSpaceOnUse"><stop stop-color="#F19D96"/><stop offset="1" stop-color="#EB7063"/></linearGradient><linearGradient id="paint2_linear" x1="102.843" y1="14.287" x2="102.843" y2=".833" gradientUnits="userSpaceOnUse"><stop offset=".01" stop-color="#F6C0BD"/><stop offset="1" stop-color="#EF918B"/></linearGradient><linearGradient id="paint3_linear" x1="2172.02" y1="362.74" x2="2455.88" y2="631.123" gradientUnits="userSpaceOnUse"><stop stop-color="#E95750"/><stop offset="1" stop-color="#F09580"/></linearGradient><clipPath id="clip0"><path fill="#fff" transform="translate(.71 .151)" d="M0 0h205.22v63.27H0z"/></clipPath></defs></svg>